<svg width="45" height="45" viewBox="0 0 45 45" fill="none" xmlns="http://www.w3.org/2000/svg">
<path d="M13.125 22.5L22.5 29.0625L31.875 22.5" stroke="black" stroke-width="4" stroke-linecap="round" stroke-linejoin="round"/>
<path d="M3.75 37.5V17.1225C3.74999 16.4749 3.91768 15.8384 4.23674 15.2748C4.55579 14.7113 5.01534 14.24 5.57062 13.9068L20.5706 4.90685C21.1534 4.55716 21.8203 4.37244 22.5 4.37244C23.1797 4.37244 23.8466 4.55716 24.4294 4.90685L39.4294 13.9068C39.9847 14.24 40.4442 14.7113 40.7633 15.2748C41.0823 15.8384 41.25 16.4749 41.25 17.1225V37.5C41.25 38.4945 40.8549 39.4484 40.1516 40.1516C39.4484 40.8549 38.4946 41.25 37.5 41.25H7.5C6.50544 41.25 5.55161 40.8549 4.84835 40.1516C4.14509 39.4484 3.75 38.4945 3.75 37.5Z" stroke="black" stroke-width="4"/>
</svg>
