<svg width="25" height="25" viewBox="0 0 25 25" fill="none" xmlns="http://www.w3.org/2000/svg">
<path d="M8.12501 2.08331H16.875C20.2083 2.08331 22.9167 4.79165 22.9167 8.12498V16.875C22.9167 18.4773 22.2801 20.0141 21.1471 21.1471C20.0141 22.2801 18.4774 22.9166 16.875 22.9166H8.12501C4.79168 22.9166 2.08334 20.2083 2.08334 16.875V8.12498C2.08334 6.52263 2.71987 4.98591 3.85291 3.85288C4.98594 2.71984 6.52266 2.08331 8.12501 2.08331ZM7.91668 4.16665C6.92211 4.16665 5.96829 4.56173 5.26503 5.265C4.56176 5.96826 4.16668 6.92208 4.16668 7.91665V17.0833C4.16668 19.1562 5.84376 20.8333 7.91668 20.8333H17.0833C18.0779 20.8333 19.0317 20.4382 19.735 19.735C20.4383 19.0317 20.8333 18.0779 20.8333 17.0833V7.91665C20.8333 5.84373 19.1563 4.16665 17.0833 4.16665H7.91668ZM17.9688 5.72915C18.3141 5.72915 18.6453 5.86633 18.8895 6.11052C19.1337 6.35471 19.2708 6.6859 19.2708 7.03123C19.2708 7.37656 19.1337 7.70775 18.8895 7.95194C18.6453 8.19613 18.3141 8.33331 17.9688 8.33331C17.6234 8.33331 17.2922 8.19613 17.048 7.95194C16.8039 7.70775 16.6667 7.37656 16.6667 7.03123C16.6667 6.6859 16.8039 6.35471 17.048 6.11052C17.2922 5.86633 17.6234 5.72915 17.9688 5.72915ZM12.5 7.29165C13.8813 7.29165 15.2061 7.84038 16.1829 8.81713C17.1596 9.79388 17.7083 11.1186 17.7083 12.5C17.7083 13.8813 17.1596 15.2061 16.1829 16.1828C15.2061 17.1596 13.8813 17.7083 12.5 17.7083C11.1187 17.7083 9.79391 17.1596 8.81716 16.1828C7.84041 15.2061 7.29168 13.8813 7.29168 12.5C7.29168 11.1186 7.84041 9.79388 8.81716 8.81713C9.79391 7.84038 11.1187 7.29165 12.5 7.29165ZM12.5 9.37498C11.6712 9.37498 10.8764 9.70422 10.2903 10.2903C9.70425 10.8763 9.37501 11.6712 9.37501 12.5C9.37501 13.3288 9.70425 14.1236 10.2903 14.7097C10.8764 15.2957 11.6712 15.625 12.5 15.625C13.3288 15.625 14.1237 15.2957 14.7097 14.7097C15.2958 14.1236 15.625 13.3288 15.625 12.5C15.625 11.6712 15.2958 10.8763 14.7097 10.2903C14.1237 9.70422 13.3288 9.37498 12.5 9.37498Z" fill="black"/>
</svg>
